<!DOCTYPE svg PUBLIC "-//W3C//DTD SVG 1.1//EN" "http://www.w3.org/Graphics/SVG/1.1/DTD/svg11.dtd">
<!-- Uploaded to: SVG Repo, www.svgrepo.com, Transformed by: SVG Repo Mixer Tools -->
<svg width="217px" height="217px" viewBox="-2.4 -2.4 28.80 28.80" xmlns="http://www.w3.org/2000/svg" fill="#000000" transform="matrix(1, 0, 0, 1, 0, 0)rotate(0)">
<g id="SVGRepo_bgCarrier" stroke-width="0"/>
<g id="SVGRepo_tracerCarrier" stroke-linecap="round" stroke-linejoin="round" stroke="#000000" stroke-width="2.016"> <path fill="none" stroke="#000000" stroke-width="1.848" d="M15,16 L21,22 L15,16 Z M10,18 C13.8659932,18 17,14.8659932 17,11 C17,7.13400675 13.8659932,4 10,4 C6.13400675,4 3,7.13400675 3,11 C3,14.8659932 6.13400675,18 10,18 Z M20,1 L20,7 M17,4 L23,4"/> </g>
<g id="SVGRepo_iconCarrier"> <path fill="none" stroke="#000000" stroke-width="1.848" d="M15,16 L21,22 L15,16 Z M10,18 C13.8659932,18 17,14.8659932 17,11 C17,7.13400675 13.8659932,4 10,4 C6.13400675,4 3,7.13400675 3,11 C3,14.8659932 6.13400675,18 10,18 Z M20,1 L20,7 M17,4 L23,4"/> </g>
</svg>