<?xml version="1.0"?>
<svg xmlns="http://www.w3.org/2000/svg" width="26" height="26" viewBox="0 0 26 26">
    <path d="M 1 2 C 0.449 2 0 2.449 0 3 L 0 5 C 0 5.552 0.449 6 1 6 L 4 6 C 4.551 6 5 5.552 5 5 L 5 3 C 5 2.449 4.551 2 4 2 L 1 2 z M 21.5 6.15625 C 20.925 6.15625 20.213 6.35525 20 6.65625 C 19.855 6.86025 19.80275 13.8155 19.59375 15.0625 L 17.59375 15.0625 C 17.38175 15.0625 17.19375 15.189 17.09375 15.375 C 16.99375 15.561 17.008 15.79275 17.125 15.96875 C 18.651 18.23875 21.025 20.26275 21.125 20.34375 C 21.228 20.42475 21.375 20.46875 21.5 20.46875 C 21.625 20.46875 21.73875 20.42475 21.84375 20.34375 C 21.94475 20.26275 24.31475 18.23875 25.84375 15.96875 C 25.96075 15.79275 25.974 15.561 25.875 15.375 C 25.775 15.189 25.585 15.0625 25.375 15.0625 L 23.375 15.0625 C 23.166 13.8155 23.02 6.86025 22.875 6.65625 C 22.664 6.35525 22.072 6.15625 21.5 6.15625 z M 1 8 C 0.449 8 0 8.449 0 9 L 0 11 C 0 11.552 0.449 12 1 12 L 7 12 C 7.551 12 8 11.552 8 11 L 8 9 C 8 8.449 7.551 8 7 8 L 1 8 z M 1 14 C 0.449 14 0 14.449 0 15 L 0 17 C 0 17.552 0.449 18 1 18 L 10 18 C 10.551 18 11 17.552 11 17 L 11 15 C 11 14.449 10.551 14 10 14 L 1 14 z M 1 20 C 0.449 20 0 20.449 0 21 L 0 23 C 0 23.552 0.449 24 1 24 L 13 24 C 13.551 24 14 23.552 14 23 L 14 21 C 14 20.449 13.551 20 13 20 L 1 20 z"/>
</svg>
