<?xml version="1.0"?>
<svg xmlns="http://www.w3.org/2000/svg" width="26" height="26" viewBox="0 0 26 26">
    <path d="M 1 2 C 0.449 2 0 2.448 0 3 L 0 5 C 0 5.551 0.449 6 1 6 L 13 6 C 13.551 6 14 5.551 14 5 L 14 3 C 14 2.448 13.551 2 13 2 L 1 2 z M 21.5 6.15625 C 20.925 6.15625 20.213 6.35525 20 6.65625 C 19.855 6.86025 19.80275 13.8155 19.59375 15.0625 L 17.59375 15.0625 C 17.38175 15.0625 17.19375 15.189 17.09375 15.375 C 16.99375 15.561 17.008 15.79275 17.125 15.96875 C 18.651 18.23875 21.025 20.26275 21.125 20.34375 C 21.228 20.42475 21.375 20.46875 21.5 20.46875 C 21.625 20.46875 21.73875 20.42475 21.84375 20.34375 C 21.94475 20.26275 24.31475 18.23875 25.84375 15.96875 C 25.96075 15.79275 25.974 15.561 25.875 15.375 C 25.775 15.189 25.585 15.0625 25.375 15.0625 L 23.375 15.0625 C 23.166 13.8155 23.02 6.86025 22.875 6.65625 C 22.664 6.35525 22.072 6.15625 21.5 6.15625 z M 1 8 C 0.449 8 0 8.448 0 9 L 0 11 C 0 11.551 0.449 12 1 12 L 10 12 C 10.551 12 11 11.551 11 11 L 11 9 C 11 8.448 10.551 8 10 8 L 1 8 z M 1 14 C 0.449 14 0 14.448 0 15 L 0 17 C 0 17.551 0.449 18 1 18 L 7 18 C 7.551 18 8 17.551 8 17 L 8 15 C 8 14.448 7.551 14 7 14 L 1 14 z M 1 20 C 0.449 20 0 20.448 0 21 L 0 23 C 0 23.551 0.449 24 1 24 L 4 24 C 4.551 24 5 23.551 5 23 L 5 21 C 5 20.448 4.551 20 4 20 L 1 20 z"/>
</svg>
